<svg width="42" height="40" viewBox="0 0 42 40" fill="none" xmlns="http://www.w3.org/2000/svg">
<path d="M2.66669 2.6665H9.33335L13.8 24.9832C13.9524 25.7505 14.3699 26.4398 14.9793 26.9303C15.5887 27.4209 16.3512 27.6815 17.1334 27.6665H33.3334C34.1155 27.6815 34.878 27.4209 35.4874 26.9303C36.0968 26.4398 36.5143 25.7505 36.6667 24.9832L39.3334 10.9998H11M17.6667 35.9998C17.6667 36.9203 16.9205 37.6665 16 37.6665C15.0795 37.6665 14.3334 36.9203 14.3334 35.9998C14.3334 35.0794 15.0795 34.3332 16 34.3332C16.9205 34.3332 17.6667 35.0794 17.6667 35.9998ZM36 35.9998C36 36.9203 35.2538 37.6665 34.3334 37.6665C33.4129 37.6665 32.6667 36.9203 32.6667 35.9998C32.6667 35.0794 33.4129 34.3332 34.3334 34.3332C35.2538 34.3332 36 35.0794 36 35.9998Z" stroke="#F5F5F5" stroke-width="4" stroke-linecap="round" stroke-linejoin="round"/>
</svg>
