<svg xmlns="http://www.w3.org/2000/svg" viewBox="0 0 272.28 314.2"><g id="Layer_2" data-name="Layer 2"><g id="Layer_1-2" data-name="Layer 1"><path d="M81.64,272.21c0-5.14,3.65-9.49,10.53-9.49,4.68,0,8.33,2,9.41,5.55H99c-1.08-2.62-3.8-3.8-6.83-3.8-5.34,0-8,3.57-8,7.71A7.49,7.49,0,0,0,91.82,280c4.35,0,7.63-3,7.66-6.48h-7.2v-1.71h9.51v9.6h-1.68l-.45-4.06h.2c-1.38,2.74-4.5,4.4-8.22,4.4C86,281.79,81.64,277.91,81.64,272.21Z"/><path d="M113.46,263.06h2.41l-2.24,5.05-6,13.34H105Zm-3.89,11.18h11.19v1.7H109.57Zm7.09-6.14-2.24-5h2.4l8.43,18.39h-2.57Z"/><path d="M127.46,275.73h2.46c.23,2.7,2.7,4.32,6.31,4.32,3.1,0,5.62-1.2,5.62-3.45s-2.61-3-6.18-3.8c-3.13-.68-7.53-1.6-7.53-5.34,0-3.4,3.62-4.74,7.68-4.74,4.74,0,7.58,1.84,7.87,5.28h-2.45c-.28-2.34-2.29-3.54-5.52-3.54-2.94,0-5.11,1-5.11,3,0,2.22,2.75,2.81,5.68,3.49,4.88,1.13,8,2.18,8,5.57,0,3.8-3.94,5.31-8.09,5.31C131,281.79,127.64,279.45,127.46,275.73Z"/><path d="M147.53,272.21c0-5.14,3.65-9.49,10.53-9.49,4.68,0,8.33,2,9.41,5.55h-2.58c-1.07-2.62-3.79-3.8-6.82-3.8-5.34,0-8,3.57-8,7.71a7.49,7.49,0,0,0,7.68,7.86c4.35,0,7.63-3,7.66-6.48h-7.2v-1.71h9.51v9.6H166l-.45-4.06h.2c-1.38,2.74-4.5,4.4-8.22,4.4C151.91,281.79,147.53,277.91,147.53,272.21Z"/><path d="M171.84,272.26c0-5.61,3.71-9.54,10.3-9.54s10.31,3.93,10.31,9.54-3.7,9.53-10.31,9.53S171.84,277.83,171.84,272.26Zm18.11,0c0-4.39-2.82-7.75-7.81-7.75s-7.8,3.36-7.8,7.75,2.85,7.77,7.8,7.77S190,276.65,190,272.24Z"/><path d="M44.46,295.46h2.41l-2.24,5.05-6,13.34H36Zm-3.89,11.18H51.76v1.7H40.57Zm7.09-6.14-2.24-5h2.4l8.42,18.39H53.67Z"/><path d="M59.74,295.46h8.89c3.82,0,6.8,2.19,6.8,5.25S72.55,306,68.63,306H62.22v7.87H59.74Zm8.77,8.79c2.59,0,4.45-1.54,4.45-3.54s-1.91-3.52-4.45-3.52H62.22v7.06Z"/><path d="M79.28,295.46h8.88c3.83,0,6.81,2.19,6.81,5.25S92.09,306,88.16,306H81.75v7.87H79.28Zm8.77,8.79c2.59,0,4.45-1.54,4.45-3.54s-1.91-3.52-4.45-3.52h-6.3v7.06Z"/><path d="M98.82,295.46h2.47v16.67h11.53v1.72h-14Z"/><path d="M116.74,295.46h2.47v18.39h-2.47Z"/><path d="M123.61,304.6c0-5.67,4-9.48,10.41-9.48,4.72,0,8.24,2,9.46,5.76H141c-1.05-2.57-3.49-4-6.89-4-5.24,0-8,3.43-8,7.65s2.84,7.91,7.75,7.91c3.82,0,6.51-2.18,7.18-5h2.49c-1,4.14-4.43,6.79-9.72,6.79C127.25,314.2,123.61,310,123.61,304.6Z"/><path d="M153.71,295.46h2.4l-2.24,5.05-6,13.34h-2.59Zm-3.89,11.18H161v1.7H149.82Zm7.08-6.14-2.24-5h2.41l8.42,18.39h-2.57Z"/><path d="M173.09,297.19h-7.58v-1.73h17.65v1.73h-7.59v16.66h-2.48Z"/><path d="M186.89,295.46h2.48v18.39h-2.48Z"/><path d="M193.76,304.66c0-5.61,3.71-9.54,10.3-9.54s10.32,3.93,10.32,9.54-3.71,9.54-10.32,9.54S193.76,310.23,193.76,304.66Zm18.11,0c0-4.39-2.81-7.75-7.81-7.75s-7.79,3.36-7.79,7.75,2.85,7.78,7.79,7.78S211.87,309.05,211.87,304.64Z"/><path d="M218.77,295.46h3.34L234.26,312h-.4V295.46h2.38v18.39h-3.35l-12.13-16.49h.38v16.49h-2.37Z"/><path d="M188.09,246.12c-31.59,0-58.17-11.94-76.88-34.51-17.77-21.44-27.16-50.76-27.16-84.79,0-33,10.55-64.46,29.7-88.48C133.48,13.62,159.88,0,188.09,0c34.73,0,63,14.83,81.77,42.89l-8.32,5.56C244.73,23.3,219.33,10,188.09,10,163,10,139.36,22.28,121.57,44.58c-17.49,21.93-27.52,51.91-27.52,82.24,0,31.67,8.6,58.78,24.86,78.41,16.75,20.21,40.67,30.89,69.18,30.89,40.34,0,70-30.29,74.24-58.35l9.89,1.51C265.9,220.56,223.63,246.12,188.09,246.12Z"/><rect x="262.28" y="138.62" width="10" height="106.15"/><rect x="199.67" y="134.64" width="72.6" height="10"/><path d="M112.16,235.69v10c25-2.61,51.67-17,66.07-39.92V178.09C174.07,204.14,148.17,232,112.16,235.69Z"/><path d="M177.5,48.45l8.31-5.56C168.54,17.05,143.19,2.44,112.16.29v10C139.69,12.44,162.16,25.51,177.5,48.45Z"/><path d="M34.87,205.23C18.6,185.6,10,158.49,10,126.82c0-30.33,10-60.31,27.53-82.24C49.4,29.7,63.87,19.28,79.65,14V3.51C60.82,9,43.61,20.92,29.71,38.34,10.55,62.36,0,93.78,0,126.82c0,34,9.39,63.35,27.17,84.79a93,93,0,0,0,52.48,31.92V233.24A83,83,0,0,1,34.87,205.23Z"/><path d="M188.22,138.62v5h-10v34.45l.06-.32,9.88,1.51a69.15,69.15,0,0,1-9.94,26.47v39h10V138.62Z"/><path d="M178.29,177.77l-.06.32v27.66a69.15,69.15,0,0,0,9.94-26.47Z"/><polygon points="188.22 138.62 188.22 137.63 115.63 137.63 115.63 143.63 178.23 143.63 178.23 138.62 188.22 138.62"/><rect x="178.23" y="138.62" width="9.99" height="5.01"/></g></g></svg>